<mxfile host="app.diagrams.net" modified="2024-03-05T15:00:53.229Z" agent="Mozilla/5.0 (X11; Linux x86_64) AppleWebKit/537.36 (KHTML, like Gecko) Chrome/121.0.0.0 Safari/537.36" etag="Arq3XdUxfwQ1VQg2QC_t" version="24.0.1" type="device">
  <diagram name="Page-1" id="e7e014a7-5840-1c2e-5031-d8a46d1fe8dd">
    <mxGraphModel dx="1434" dy="760" grid="1" gridSize="10" guides="1" tooltips="1" connect="1" arrows="1" fold="1" page="1" pageScale="1" pageWidth="1169" pageHeight="826" background="none" math="0" shadow="0">
      <root>
        <mxCell id="0" />
        <mxCell id="1" parent="0" />
        <mxCell id="Jt9Yt_CKw0-XLxk6m8NT-1" style="edgeStyle=orthogonalEdgeStyle;rounded=0;orthogonalLoop=1;jettySize=auto;html=1;exitX=0.5;exitY=1;exitDx=0;exitDy=0;entryX=0.5;entryY=0;entryDx=0;entryDy=0;" parent="1" source="LYkYgob7JeBB2bsd8aDX-41" target="LYkYgob7JeBB2bsd8aDX-45" edge="1">
          <mxGeometry relative="1" as="geometry" />
        </mxCell>
        <mxCell id="Jt9Yt_CKw0-XLxk6m8NT-2" style="edgeStyle=orthogonalEdgeStyle;rounded=0;orthogonalLoop=1;jettySize=auto;html=1;exitX=0.5;exitY=1;exitDx=0;exitDy=0;entryX=0.5;entryY=0;entryDx=0;entryDy=0;" parent="1" source="LYkYgob7JeBB2bsd8aDX-41" target="LYkYgob7JeBB2bsd8aDX-44" edge="1">
          <mxGeometry relative="1" as="geometry" />
        </mxCell>
        <mxCell id="LYkYgob7JeBB2bsd8aDX-41" value="&lt;font face=&quot;Lucida Console&quot;&gt;int ft_printf(const char *, ...)&lt;/font&gt;" style="rounded=0;whiteSpace=wrap;html=1;fillColor=#ffcd28;strokeColor=#d79b00;gradientColor=#ffa500;" parent="1" vertex="1">
          <mxGeometry x="458" y="130" width="160" height="60" as="geometry" />
        </mxCell>
        <mxCell id="LYkYgob7JeBB2bsd8aDX-82" style="edgeStyle=orthogonalEdgeStyle;rounded=0;orthogonalLoop=1;jettySize=auto;html=1;exitX=0.5;exitY=1;exitDx=0;exitDy=0;" parent="1" source="LYkYgob7JeBB2bsd8aDX-44" target="LYkYgob7JeBB2bsd8aDX-78" edge="1">
          <mxGeometry relative="1" as="geometry" />
        </mxCell>
        <mxCell id="LYkYgob7JeBB2bsd8aDX-44" value="..." style="rounded=0;whiteSpace=wrap;html=1;fillColor=#fff2cc;strokeColor=#d6b656;gradientColor=#ffd966;" parent="1" vertex="1">
          <mxGeometry x="590" y="340" width="120" height="60" as="geometry" />
        </mxCell>
        <mxCell id="LYkYgob7JeBB2bsd8aDX-74" style="edgeStyle=orthogonalEdgeStyle;rounded=0;orthogonalLoop=1;jettySize=auto;html=1;exitX=0.5;exitY=1;exitDx=0;exitDy=0;" parent="1" source="LYkYgob7JeBB2bsd8aDX-45" target="LYkYgob7JeBB2bsd8aDX-46" edge="1">
          <mxGeometry relative="1" as="geometry" />
        </mxCell>
        <mxCell id="LYkYgob7JeBB2bsd8aDX-45" value="const char *" style="rounded=0;whiteSpace=wrap;html=1;fillColor=#f8cecc;strokeColor=#b85450;gradientColor=#ea6b66;" parent="1" vertex="1">
          <mxGeometry x="350" y="340" width="120" height="60" as="geometry" />
        </mxCell>
        <mxCell id="WUjo9Qc7d9LIDFN-vylm-17" style="edgeStyle=orthogonalEdgeStyle;rounded=0;orthogonalLoop=1;jettySize=auto;html=1;exitX=0.5;exitY=1;exitDx=0;exitDy=0;" parent="1" source="LYkYgob7JeBB2bsd8aDX-46" target="WUjo9Qc7d9LIDFN-vylm-16" edge="1">
          <mxGeometry relative="1" as="geometry">
            <Array as="points">
              <mxPoint x="410" y="600" />
              <mxPoint x="250" y="600" />
            </Array>
          </mxGeometry>
        </mxCell>
        <mxCell id="LYkYgob7JeBB2bsd8aDX-46" value="Detect &quot;%&quot; character" style="rounded=0;whiteSpace=wrap;html=1;fillColor=#dae8fc;gradientColor=#7ea6e0;strokeColor=#6c8ebf;" parent="1" vertex="1">
          <mxGeometry x="350" y="520" width="120" height="60" as="geometry" />
        </mxCell>
        <mxCell id="WUjo9Qc7d9LIDFN-vylm-21" style="edgeStyle=orthogonalEdgeStyle;rounded=0;orthogonalLoop=1;jettySize=auto;html=1;exitX=0.5;exitY=1;exitDx=0;exitDy=0;" parent="1" source="LYkYgob7JeBB2bsd8aDX-78" edge="1">
          <mxGeometry relative="1" as="geometry">
            <mxPoint x="650" y="770" as="targetPoint" />
          </mxGeometry>
        </mxCell>
        <mxCell id="LYkYgob7JeBB2bsd8aDX-78" value="Create variable arguments using va_list, va_start, va_arg, va_end" style="rounded=0;whiteSpace=wrap;html=1;fillColor=#dae8fc;gradientColor=#7ea6e0;strokeColor=#6c8ebf;" parent="1" vertex="1">
          <mxGeometry x="590" y="520" width="120" height="60" as="geometry" />
        </mxCell>
        <mxCell id="LYkYgob7JeBB2bsd8aDX-81" style="edgeStyle=orthogonalEdgeStyle;rounded=0;orthogonalLoop=1;jettySize=auto;html=1;exitX=1;exitY=0.5;exitDx=0;exitDy=0;" parent="1" source="LYkYgob7JeBB2bsd8aDX-80" target="LYkYgob7JeBB2bsd8aDX-41" edge="1">
          <mxGeometry relative="1" as="geometry" />
        </mxCell>
        <mxCell id="LYkYgob7JeBB2bsd8aDX-80" value="&lt;font face=&quot;Lucida Console&quot;&gt;Include header file&lt;/font&gt;" style="rounded=0;whiteSpace=wrap;html=1;fillColor=#f5f5f5;gradientColor=#b3b3b3;strokeColor=#666666;" parent="1" vertex="1">
          <mxGeometry x="230" y="130" width="120" height="60" as="geometry" />
        </mxCell>
        <mxCell id="LYkYgob7JeBB2bsd8aDX-83" value="#include &amp;lt;stdargs.h&amp;gt;" style="text;html=1;align=center;verticalAlign=middle;whiteSpace=wrap;rounded=0;" parent="1" vertex="1">
          <mxGeometry x="660" y="450" width="120" height="30" as="geometry" />
        </mxCell>
        <mxCell id="LYkYgob7JeBB2bsd8aDX-84" value="Parse through string (either using index array, poitners or linked lists) using while loop" style="text;html=1;align=center;verticalAlign=middle;whiteSpace=wrap;rounded=0;" parent="1" vertex="1">
          <mxGeometry x="413" y="450" width="157" height="50" as="geometry" />
        </mxCell>
        <mxCell id="WUjo9Qc7d9LIDFN-vylm-20" style="edgeStyle=orthogonalEdgeStyle;rounded=0;orthogonalLoop=1;jettySize=auto;html=1;exitX=1;exitY=0.5;exitDx=0;exitDy=0;entryX=0.5;entryY=0;entryDx=0;entryDy=0;" parent="1" source="WUjo9Qc7d9LIDFN-vylm-16" target="WUjo9Qc7d9LIDFN-vylm-19" edge="1">
          <mxGeometry relative="1" as="geometry" />
        </mxCell>
        <mxCell id="WUjo9Qc7d9LIDFN-vylm-16" value="• %c Prints a single character.&#xa;        • %s Prints a string (as defined by the common C convention).&#xa;        • %p The void * pointer argument has to be printed in hexadecimal format.&#xa;        • %d Prints a decimal (base 10) number.&#xa;        • %i Prints an integer in base 10.&#xa;        • %u Prints an unsigned decimal (base 10) number.&#xa;        • %x Prints a number in hexadecimal (base 16) lowercase format.&#xa;        • %X Prints a number in hexadecimal (base 16) uppercase format.&#xa;        • %% Prints a percent sign." style="rounded=0;whiteSpace=wrap;html=1;fillColor=#dae8fc;gradientColor=#7ea6e0;strokeColor=#6c8ebf;" parent="1" vertex="1">
          <mxGeometry x="30" y="615" width="440" height="150" as="geometry" />
        </mxCell>
        <mxCell id="WUjo9Qc7d9LIDFN-vylm-19" value="Iterate through ft_printf and display characters" style="rounded=0;whiteSpace=wrap;html=1;fillColor=#dae8fc;gradientColor=#7ea6e0;strokeColor=#6c8ebf;" parent="1" vertex="1">
          <mxGeometry x="590" y="766" width="120" height="60" as="geometry" />
        </mxCell>
        <mxCell id="WUjo9Qc7d9LIDFN-vylm-22" value="Allocate memory as if joining multiple strings:&lt;br&gt;&lt;div&gt;ft_printf (up until first %) + (%thing) + ... (%thingN) +rest of ft_printf)&lt;/div&gt;" style="text;html=1;align=center;verticalAlign=middle;whiteSpace=wrap;rounded=0;" parent="1" vertex="1">
          <mxGeometry x="660" y="665" width="260" height="50" as="geometry" />
        </mxCell>
        <mxCell id="Jt9Yt_CKw0-XLxk6m8NT-3" value="Handling needed inputs" style="text;html=1;align=center;verticalAlign=middle;whiteSpace=wrap;rounded=0;" parent="1" vertex="1">
          <mxGeometry x="550" y="210" width="140" height="30" as="geometry" />
        </mxCell>
      </root>
    </mxGraphModel>
  </diagram>
</mxfile>
